<mxfile host="app.diagrams.net" modified="2023-05-27T16:34:02.336Z" agent="Mozilla/5.0 (Windows NT 10.0; Win64; x64) AppleWebKit/537.36 (KHTML, like Gecko) Chrome/107.0.0.0 Safari/537.36" etag="YPESIZYrpphrrZbbhlzx" version="21.3.4" type="github">
  <diagram id="C5RBs43oDa-KdzZeNtuy" name="Page-1">
    <mxGraphModel dx="1050" dy="541" grid="1" gridSize="10" guides="1" tooltips="1" connect="1" arrows="1" fold="1" page="1" pageScale="1" pageWidth="827" pageHeight="1169" math="0" shadow="0">
      <root>
        <mxCell id="WIyWlLk6GJQsqaUBKTNV-0" />
        <mxCell id="WIyWlLk6GJQsqaUBKTNV-1" parent="WIyWlLk6GJQsqaUBKTNV-0" />
        <mxCell id="_fBj4VdPA5deemyygOd2-13" style="edgeStyle=orthogonalEdgeStyle;rounded=0;orthogonalLoop=1;jettySize=auto;html=1;entryX=0.5;entryY=0;entryDx=0;entryDy=0;" edge="1" parent="WIyWlLk6GJQsqaUBKTNV-1" source="WIyWlLk6GJQsqaUBKTNV-6" target="WIyWlLk6GJQsqaUBKTNV-7">
          <mxGeometry relative="1" as="geometry" />
        </mxCell>
        <mxCell id="_fBj4VdPA5deemyygOd2-14" style="edgeStyle=orthogonalEdgeStyle;rounded=0;orthogonalLoop=1;jettySize=auto;html=1;entryX=0.5;entryY=0;entryDx=0;entryDy=0;" edge="1" parent="WIyWlLk6GJQsqaUBKTNV-1" source="WIyWlLk6GJQsqaUBKTNV-6" target="_fBj4VdPA5deemyygOd2-4">
          <mxGeometry relative="1" as="geometry" />
        </mxCell>
        <mxCell id="WIyWlLk6GJQsqaUBKTNV-6" value="&lt;font style=&quot;font-size: 24px;&quot;&gt;社会稳定因素&lt;/font&gt;" style="rhombus;whiteSpace=wrap;html=1;shadow=0;fontFamily=Helvetica;fontSize=12;align=center;strokeWidth=1;spacing=6;spacingTop=-4;" parent="WIyWlLk6GJQsqaUBKTNV-1" vertex="1">
          <mxGeometry x="289" y="10" width="250" height="140" as="geometry" />
        </mxCell>
        <mxCell id="_fBj4VdPA5deemyygOd2-7" style="edgeStyle=orthogonalEdgeStyle;rounded=0;orthogonalLoop=1;jettySize=auto;html=1;" edge="1" parent="WIyWlLk6GJQsqaUBKTNV-1" source="WIyWlLk6GJQsqaUBKTNV-7" target="_fBj4VdPA5deemyygOd2-6">
          <mxGeometry relative="1" as="geometry" />
        </mxCell>
        <mxCell id="WIyWlLk6GJQsqaUBKTNV-7" value="&lt;font style=&quot;font-size: 18px;&quot;&gt;分配者&lt;/font&gt;" style="rounded=1;whiteSpace=wrap;html=1;fontSize=12;glass=0;strokeWidth=1;shadow=0;fillColor=#99F8FF;" parent="WIyWlLk6GJQsqaUBKTNV-1" vertex="1">
          <mxGeometry x="589" y="250" width="120" height="40" as="geometry" />
        </mxCell>
        <mxCell id="_fBj4VdPA5deemyygOd2-4" value="&lt;font style=&quot;font-size: 18px;&quot;&gt;劳动者&lt;br&gt;&lt;/font&gt;" style="rounded=1;whiteSpace=wrap;html=1;fontSize=12;glass=0;strokeWidth=1;shadow=0;fillColor=#99F8FF;" vertex="1" parent="WIyWlLk6GJQsqaUBKTNV-1">
          <mxGeometry x="119" y="250" width="120" height="40" as="geometry" />
        </mxCell>
        <mxCell id="_fBj4VdPA5deemyygOd2-6" value="&lt;font style=&quot;font-size: 18px;&quot;&gt;得到90%的社会财富&lt;/font&gt;" style="ellipse;whiteSpace=wrap;html=1;fillColor=#FFFFCC;" vertex="1" parent="WIyWlLk6GJQsqaUBKTNV-1">
          <mxGeometry x="589" y="350" width="120" height="80" as="geometry" />
        </mxCell>
        <mxCell id="_fBj4VdPA5deemyygOd2-11" style="edgeStyle=orthogonalEdgeStyle;rounded=0;orthogonalLoop=1;jettySize=auto;html=1;" edge="1" parent="WIyWlLk6GJQsqaUBKTNV-1" target="_fBj4VdPA5deemyygOd2-12">
          <mxGeometry relative="1" as="geometry">
            <mxPoint x="179" y="290" as="sourcePoint" />
          </mxGeometry>
        </mxCell>
        <mxCell id="_fBj4VdPA5deemyygOd2-12" value="&lt;font style=&quot;font-size: 18px;&quot;&gt;得到10%的社会财富&lt;/font&gt;" style="ellipse;whiteSpace=wrap;html=1;fillColor=#FFFFCC;" vertex="1" parent="WIyWlLk6GJQsqaUBKTNV-1">
          <mxGeometry x="119" y="350" width="120" height="80" as="geometry" />
        </mxCell>
        <mxCell id="_fBj4VdPA5deemyygOd2-17" value="&lt;font style=&quot;font-size: 18px;&quot;&gt;角色&lt;br&gt;&lt;/font&gt;" style="rounded=1;whiteSpace=wrap;html=1;fontSize=12;glass=0;strokeWidth=1;shadow=0;fillColor=#99F8FF;" vertex="1" parent="WIyWlLk6GJQsqaUBKTNV-1">
          <mxGeometry x="354" y="250" width="120" height="40" as="geometry" />
        </mxCell>
        <mxCell id="_fBj4VdPA5deemyygOd2-18" value="&lt;font style=&quot;font-size: 18px;&quot;&gt;拥有量&lt;br&gt;&lt;/font&gt;" style="rounded=1;whiteSpace=wrap;html=1;fontSize=12;glass=0;strokeWidth=1;shadow=0;fillColor=#99F8FF;" vertex="1" parent="WIyWlLk6GJQsqaUBKTNV-1">
          <mxGeometry x="354" y="370" width="120" height="40" as="geometry" />
        </mxCell>
        <mxCell id="_fBj4VdPA5deemyygOd2-19" value="&lt;font style=&quot;font-size: 18px;&quot;&gt;劳动量&lt;br&gt;&lt;/font&gt;" style="rounded=1;whiteSpace=wrap;html=1;fontSize=12;glass=0;strokeWidth=1;shadow=0;fillColor=#99F8FF;" vertex="1" parent="WIyWlLk6GJQsqaUBKTNV-1">
          <mxGeometry x="353.5" y="490" width="120" height="40" as="geometry" />
        </mxCell>
        <mxCell id="_fBj4VdPA5deemyygOd2-20" value="&lt;font style=&quot;font-size: 18px;&quot;&gt;付出90%的劳动&lt;/font&gt;" style="ellipse;whiteSpace=wrap;html=1;fillColor=#FFFFCC;" vertex="1" parent="WIyWlLk6GJQsqaUBKTNV-1">
          <mxGeometry x="119" y="470" width="120" height="80" as="geometry" />
        </mxCell>
        <mxCell id="_fBj4VdPA5deemyygOd2-21" value="&lt;font style=&quot;font-size: 18px;&quot;&gt;付出10%的劳动&lt;/font&gt;" style="ellipse;whiteSpace=wrap;html=1;fillColor=#FFFFCC;" vertex="1" parent="WIyWlLk6GJQsqaUBKTNV-1">
          <mxGeometry x="589" y="470" width="120" height="80" as="geometry" />
        </mxCell>
        <mxCell id="_fBj4VdPA5deemyygOd2-23" value="&lt;font style=&quot;font-size: 18px;&quot;&gt;流动量&lt;br&gt;&lt;/font&gt;" style="rounded=1;whiteSpace=wrap;html=1;fontSize=12;glass=0;strokeWidth=1;shadow=0;fillColor=#99F8FF;" vertex="1" parent="WIyWlLk6GJQsqaUBKTNV-1">
          <mxGeometry x="354" y="600" width="120" height="40" as="geometry" />
        </mxCell>
        <mxCell id="_fBj4VdPA5deemyygOd2-24" value="&lt;font style=&quot;font-size: 18px;&quot;&gt;拥挤度&lt;br&gt;&lt;/font&gt;" style="rounded=1;whiteSpace=wrap;html=1;fontSize=12;glass=0;strokeWidth=1;shadow=0;fillColor=#99F8FF;" vertex="1" parent="WIyWlLk6GJQsqaUBKTNV-1">
          <mxGeometry x="354" y="850" width="120" height="40" as="geometry" />
        </mxCell>
        <mxCell id="_fBj4VdPA5deemyygOd2-25" value="&lt;font style=&quot;font-size: 18px;&quot;&gt;一定周期有X%的人向上层流动&lt;/font&gt;" style="ellipse;whiteSpace=wrap;html=1;fillColor=#FFFFCC;" vertex="1" parent="WIyWlLk6GJQsqaUBKTNV-1">
          <mxGeometry x="119" y="590" width="120" height="80" as="geometry" />
        </mxCell>
        <mxCell id="_fBj4VdPA5deemyygOd2-26" value="&lt;span style=&quot;font-size: 18px;&quot;&gt;内部调整，外部增量，生产力发展&lt;/span&gt;" style="ellipse;whiteSpace=wrap;html=1;fillColor=#FFFFCC;" vertex="1" parent="WIyWlLk6GJQsqaUBKTNV-1">
          <mxGeometry x="589" y="830" width="120" height="80" as="geometry" />
        </mxCell>
        <mxCell id="_fBj4VdPA5deemyygOd2-27" value="&lt;font style=&quot;font-size: 18px;&quot;&gt;绝大部分人满足基本温饱，少量奶嘴乐&lt;/font&gt;" style="ellipse;whiteSpace=wrap;html=1;fillColor=#FFFFCC;" vertex="1" parent="WIyWlLk6GJQsqaUBKTNV-1">
          <mxGeometry x="119" y="710" width="120" height="80" as="geometry" />
        </mxCell>
        <mxCell id="_fBj4VdPA5deemyygOd2-28" value="&lt;font style=&quot;font-size: 18px;&quot;&gt;一定周期有X%垃圾被清除出系统&lt;/font&gt;" style="ellipse;whiteSpace=wrap;html=1;fillColor=#FFFFCC;" vertex="1" parent="WIyWlLk6GJQsqaUBKTNV-1">
          <mxGeometry x="589" y="590" width="120" height="80" as="geometry" />
        </mxCell>
        <mxCell id="_fBj4VdPA5deemyygOd2-29" style="edgeStyle=orthogonalEdgeStyle;rounded=0;orthogonalLoop=1;jettySize=auto;html=1;exitX=0.5;exitY=1;exitDx=0;exitDy=0;" edge="1" parent="WIyWlLk6GJQsqaUBKTNV-1" source="_fBj4VdPA5deemyygOd2-24" target="_fBj4VdPA5deemyygOd2-24">
          <mxGeometry relative="1" as="geometry" />
        </mxCell>
        <mxCell id="_fBj4VdPA5deemyygOd2-34" value="&lt;font style=&quot;font-size: 14px;&quot;&gt;对社会财富的分配是否合理&lt;/font&gt;" style="shape=process;whiteSpace=wrap;html=1;backgroundOutline=1;" vertex="1" parent="WIyWlLk6GJQsqaUBKTNV-1">
          <mxGeometry x="308.5" y="150" width="220.5" height="20" as="geometry" />
        </mxCell>
        <mxCell id="_fBj4VdPA5deemyygOd2-35" value="&lt;font style=&quot;font-size: 14px;&quot;&gt;废土到繁荣必然会到达这个值&lt;/font&gt;" style="shape=process;whiteSpace=wrap;html=1;backgroundOutline=1;" vertex="1" parent="WIyWlLk6GJQsqaUBKTNV-1">
          <mxGeometry x="298.75" y="410" width="230.5" height="20" as="geometry" />
        </mxCell>
        <mxCell id="_fBj4VdPA5deemyygOd2-36" value="&lt;font style=&quot;font-size: 14px;&quot;&gt;吃不到第一口蛋糕必然会被压榨&lt;/font&gt;" style="shape=process;whiteSpace=wrap;html=1;backgroundOutline=1;" vertex="1" parent="WIyWlLk6GJQsqaUBKTNV-1">
          <mxGeometry x="293.5" y="530" width="250.5" height="20" as="geometry" />
        </mxCell>
        <mxCell id="_fBj4VdPA5deemyygOd2-37" value="&lt;font style=&quot;font-size: 14px;&quot;&gt;日子有盼头，上面有空位&lt;/font&gt;" style="shape=process;whiteSpace=wrap;html=1;backgroundOutline=1;" vertex="1" parent="WIyWlLk6GJQsqaUBKTNV-1">
          <mxGeometry x="303.75" y="640" width="230" height="20" as="geometry" />
        </mxCell>
        <mxCell id="_fBj4VdPA5deemyygOd2-39" value="&lt;font style=&quot;font-size: 18px;&quot;&gt;满意度&lt;br&gt;&lt;/font&gt;" style="rounded=1;whiteSpace=wrap;html=1;fontSize=12;glass=0;strokeWidth=1;shadow=0;fillColor=#99F8FF;" vertex="1" parent="WIyWlLk6GJQsqaUBKTNV-1">
          <mxGeometry x="354" y="730" width="120" height="40" as="geometry" />
        </mxCell>
        <mxCell id="_fBj4VdPA5deemyygOd2-40" value="&lt;font style=&quot;font-size: 18px;&quot;&gt;劳动力、报酬、劳动量，机会分配是否合理&lt;/font&gt;" style="ellipse;whiteSpace=wrap;html=1;fillColor=#FFFFCC;" vertex="1" parent="WIyWlLk6GJQsqaUBKTNV-1">
          <mxGeometry x="119" y="830" width="120" height="80" as="geometry" />
        </mxCell>
        <mxCell id="_fBj4VdPA5deemyygOd2-41" value="&lt;font style=&quot;font-size: 14px;&quot;&gt;假设社会稳定社会财富上升情况下，&lt;br&gt;&lt;font color=&quot;#ff2626&quot;&gt;劳动力上升，报酬下降，劳动量上升，机会下降，导致大量焦虑属于极限压榨社会&lt;/font&gt;&lt;br&gt;劳动力上升，报酬下降，劳动量下降，机会不变，属于少量剥削&lt;br&gt;&lt;br&gt;劳动力上升，报酬不变，劳动量下降，机会不变，属于福利社会&lt;/font&gt;" style="shape=process;whiteSpace=wrap;html=1;backgroundOutline=1;" vertex="1" parent="WIyWlLk6GJQsqaUBKTNV-1">
          <mxGeometry x="298.5" y="890" width="230" height="200" as="geometry" />
        </mxCell>
        <mxCell id="_fBj4VdPA5deemyygOd2-42" value="&lt;font style=&quot;font-size: 18px;&quot;&gt;社会稳定&lt;/font&gt;" style="ellipse;whiteSpace=wrap;html=1;fillColor=#FFFFCC;" vertex="1" parent="WIyWlLk6GJQsqaUBKTNV-1">
          <mxGeometry x="589" y="710" width="120" height="80" as="geometry" />
        </mxCell>
      </root>
    </mxGraphModel>
  </diagram>
</mxfile>
